# AST/ASF file generated using VICON BodyLanguage
# -----------------------------------------------
:version 1.10
:name VICON
:units
  mass 1.0
  length 0.45
  angle deg
:documentation
   .ast/.asf automatically generated from VICON data using
   VICON BodyBuilder and BodyLanguage model FoxedUp or BRILLIANT.MOD
:root
   order TX TY TZ RX RY RZ
   axis XYZ
   position 0 0 0  
   orientation 0 0 0 
:bonedata
  begin
     id 1 
     name lhipjoint
     direction 0.62366 -0.717238 0.310833 
     length 2.53602 
     axis 0 0 0  XYZ
  end
  begin
     id 2 
     name lfemur
     direction 0.34202 -0.939693 0  
     length 7.40817  
     axis 0 0 20  XYZ
    dof rx ry rz
    limits (-160.0 20.0)
           (-70.0 70.0)
           (-60.0 70.0)
  end
  begin
     id 3 
     name ltibia
     direction 0.34202 -0.939693 0   
     length 7.7045   
     axis 0 0 20   XYZ
    dof rx
    limits (-10.0 170.0)
  end
  begin
     id 4 
     name lfoot
     direction 0.0673888 -0.185149 0.980397   
     length 2.09456   
     axis -90 7.62852e-016 20   XYZ
    dof rx rz
    limits (-45.0 90.0)
           (-70.0 20.0)
  end
  begin
     id 5 
     name ltoes
     direction 1.53575e-011 -4.21994e-011 1   
     length 1.05543   
     axis -90 7.62852e-016 20   XYZ
    dof rx
    limits (-90.0 20.0)
  end
  begin
     id 6 
     name rhipjoint
     direction -0.489018 -0.800347 0.346851   
     length 2.27268  
     axis 0 0 0  XYZ 
  end
  begin
     id 7 
     name rfemur
     direction -0.34202 -0.939693 0   
     length 7.55487   
     axis 0 0 -20   XYZ
    dof rx ry rz
    limits (-160.0 20.0)
           (-70.0 70.0)
           (-70.0 60.0)
  end
  begin
     id 8 
     name rtibia
     direction -0.34202 -0.939693 0   
     length 7.78969   
     axis 0 0 -20   XYZ
    dof rx
    limits (-10.0 170.0)
 end
 begin
     id 9 
     name rfoot
     direction -0.0859318 -0.236096 0.967923   
     length 2.19143  
     axis -90 -7.62852e-016 -20   XYZ
    dof rx rz
    limits (-45.0 90.0)
           (-20.0 70.0)
  end
  begin
     id 10 
     name rtoes
     direction -1.53538e-011 -4.21989e-011 1   
     length 1.09845   
     axis -90 -7.62852e-016 -20   XYZ
    dof rx
    limits (-90.0 20.0)
  end
  begin
     id 11 
     name lowerback
     direction -0.00762546 0.998978 -0.0445553   
     length 1.98161   
     axis 0 0 0   XYZ
    dof rx ry rz
    limits (-20.0 45.0)
           (-30.0 30.0)
           (-30.0 30.0)
  end
  begin
     id 12 
     name upperback
     direction 0.0422361 0.998867 -0.0219156   
     length 1.97558   
     axis 0 0 0   XYZ
    dof rx ry rz
    limits (-20.0 45.0)
           (-30.0 30.0)
           (-30.0 30.0)
  end
  begin
     id 13 
     name thorax
     direction 0.0442465 0.999021 7.47603e-005   
     length 1.97799   
     axis 0 0 0   XYZ
    dof rx ry rz
    limits (-20.0 45.0)
           (-30.0 30.0)
           (-30.0 30.0)
  end
  begin
     id 14 
     name lowerneck
     direction 0.00312169 0.984641 0.174564   
     length 1.78995   
     axis 0 0 0   XYZ
    dof rx ry rz
    limits (-20.0 45.0)
           (-30.0 30.0)
           (-30.0 30.0)
  end
  begin
     id 15 
     name upperneck
     direction -0.0383028 0.985255 -0.166749   
     length 1.83053   
     axis 0 0 0   XYZ
    dof rx ry rz
    limits (-20.0 45.0)
           (-30.0 30.0)
           (-30.0 30.0)
  end
  begin
     id 16
     name head
     direction -0.0129546 0.997059 -0.0755386  
     length 1.84088  
     axis 0 0 0   XYZ
    dof rx ry rz
    limits (-20.0 45.0)
           (-30.0 30.0)
           (-30.0 30.0)
  end
  begin
     id 17 
     name lclavicle
     direction 0.912857 0.370519 -0.171488  
     length 3.51279  
     axis 0 0 0   XYZ
    dof ry rz
    limits (-20.0 10.0)
           (0.0 20.0)
  end
  begin
     id 18 
     name lhumerus
     direction 1 -4.48962e-011 3.64361e-027   
     length 4.95663   
     axis 180 -30 -90   XYZ
    dof rx ry rz
    limits (-60.0 90.0)
           (-90.0 90.0)
           (-90.0 90.0)
  end
  begin
     id 19
     name lradius
     direction 1 -4.48974e-011 5.97202e-027   
     length 3.38177   
     axis 180 -30 -90   XYZ
    dof rx
    limits (-10.0 170.0)
  end
  begin
     id 20
     name lwrist
     direction 1 -4.4896e-011 9.83288e-027   
     length 1.69088   
     axis -9.31221e-015 90 90   XYZ
    dof ry
    limits (-180.0 0.0)
 end
  begin
     id 21 
     name lhand
     direction 1 -4.4902e-011 1.96551e-026   
     length 0.662909   
     axis -1.25475e-014 90 90   XYZ
    dof rx rz
    limits (-90.0 90.0)
           (-45.0 45.0)
  end
  begin
     id 22 
     name lfingers
     direction 1 -4.48971e-011 3.93277e-026   
     length 0.534454   
     axis -2.50945e-014 90 90   XYZ
    dof rx
    limits (0.0 90.0)
  end
  begin
     id 23
     name lthumb
     direction 0.707107 -6.34933e-011 0.707107   
     length 0.767373   
     axis -90 45 -4.80359e-014   XYZ
    dof rx rz
    limits (-45.0 45.0)
           (-45.0 45.0)
  end
  begin
     id 24 
     name rclavicle
     direction -0.900919 0.395364 -0.178976   
     length 3.40627  
     axis 0 0 0   XYZ 
    dof ry rz
    limits (-10.0 20.0)
           (-20.0 0.0)
  end
  begin
     id 25 
     name rhumerus
     direction -1 -4.48969e-011 1.03875e-027  
     length 5.08365   
     axis 180 30 90   XYZ
    dof rx ry rz
    limits (-90.0 60.0)
           (-90.0 90.0)
           (-90.0 90.0)
  end
  begin
     id 26 
     name rradius
     direction -1 -4.48951e-011 5.02733e-027   
     length 3.35984   
     axis 180 30 90   XYZ
    dof rx
    limits (-10.0 170.0)
  end
  begin
     id 27 
     name rwrist
     direction -1 -4.49011e-011 9.82828e-027   
     length 1.67992   
     axis -9.31221e-015 -90 -90   XYZ
    dof ry
    limits (-180.0 0.0)
  end
  begin
     id 28
     name rhand
     direction -1 -4.48894e-011 1.96774e-026   
     length 0.820764   
     axis -1.25475e-014 -90 -90   XYZ
    dof rx rz
    limits (-90.0 90.0)
           (-45.0 45.0)
  end
  begin
     id 29
     name rfingers
     direction -1 -4.49095e-011 3.92833e-026   
     length 0.661721   
     axis -2.50945e-014 -90 -90   XYZ
    dof rx
    limits (0.0 90.0)
  end
  begin
     id 30
     name rthumb
     direction -0.707107 -6.34881e-011 0.707107   
     length 0.950103   
     axis -90 -45 4.80359e-014   XYZ
    dof rx rz
    limits (-45.0 45.0)
           (-45.0 45.0)
  end
:hierarchy
  begin
    root lhipjoint rhipjoint lowerback
    lhipjoint lfemur
    lfemur ltibia
    ltibia lfoot
    lfoot ltoes
    rhipjoint rfemur
    rfemur rtibia
    rtibia rfoot
    rfoot rtoes
    lowerback upperback
    upperback thorax
    thorax lowerneck lclavicle rclavicle
    lowerneck upperneck
    upperneck head
    lclavicle lhumerus
    lhumerus lradius
    lradius lwrist
    lwrist lhand lthumb
    lhand lfingers
    rclavicle rhumerus
    rhumerus rradius
    rradius rwrist
    rwrist rhand rthumb
    rhand rfingers
  end

#!OML:ASF I:\golf\golf\golf 2\Subject 1\2002-09-07\Subject1.ASF
:FULLY-SPECIFIED
:DEGREES
49
root -10.3227 17.9079 5.6574 -42.5036 84.637 -57.7063
lowerback 4.05822 1.48299 -1.26882
upperback 5.70089 2.05161 4.15702
thorax 3.42285 0.968398 5.00724
lowerneck -13.2875 -1.58799 1.82557
upperneck 42.9146 1.1431 -3.74033
head 18.3965 0.930836 -1.66994
rclavicle -1.98785e-015 1.74931e-014
rhumerus -10.983 26.8313 -101.147
rradius 35.7324
rwrist -41.6691
rhand -28.4411 -9.46389
rfingers 7.12502
rthumb -1.81192 -39.4359
lclavicle -1.98785e-015 1.74931e-014
lhumerus -10.0463 -37.1512 106.417
lradius 36.0125
lwrist 49.8668
lhand -4.82329 55.5747
lfingers 7.12502
lthumb 20.9632 84.4618
rfemur -31.5886 -1.73652 18.2754
rtibia 29.8116
rfoot -8.79245 -2.20817
rtoes -0.374806
lfemur -29.5459 6.02166 -9.93301
ltibia 30.4756
lfoot -11.6263 -0.367089
ltoes -16.8085
50
root -10.3226 17.9085 5.65669 -42.7501 84.6351 -57.9345
lowerback 4.08505 1.44848 -1.32529
upperback 5.70369 2.0052 4.21425
thorax 3.41209 0.942618 5.0996
lowerneck -13.2707 -1.5681 1.76867
upperneck 42.8887 1.21444 -3.79858
head 18.3807 0.941262 -1.6735
rclavicle 7.95139e-015 -1.43125e-014
rhumerus -11.0249 27.0192 -101.122
rradius 35.7797
rwrist -41.7575
rhand -28.4671 -9.63211
rfingers 7.12502
rthumb -1.83708 -39.604
lclavicle 7.95139e-015 -1.43125e-014
lhumerus -9.99279 -37.0219 106.41
lradius 36.0277
lwrist 49.9107
lhand -4.8062 55.6204
lfingers 7.12502
lthumb 20.9796 84.5057
rfemur -31.5583 -1.77111 18.2972
rtibia 29.7948
rfoot -8.75452 -2.18908
rtoes -0.262811
lfemur -29.536 6.01448 -9.91756
ltibia 30.4966
lfoot -11.6482 -0.376757
ltoes -16.6613
51
root -10.3231 17.9087 5.65442 -42.9527 84.6319 -58.1389
lowerback 4.10849 1.45335 -1.28882
upperback 5.69161 2.01257 4.20677
thorax 3.38675 0.948374 5.06966
lowerneck -13.2924 -1.59151 1.79493
upperneck 42.9009 1.17924 -3.82022
head 18.3924 0.928896 -1.69554
rclavicle 5.24792e-014 9.14409e-014
rhumerus -11.0322 26.9769 -101.122
rradius 35.8298
rwrist -41.8596
rhand -28.6064 -9.70343
rfingers 7.12502
rthumb -1.97157 -39.6741
lclavicle 5.24792e-014 9.14409e-014
lhumerus -9.99709 -36.9056 106.434
lradius 35.9884
lwrist 49.8177
lhand -4.70631 55.7012
lfingers 7.12502
lthumb 21.0756 84.5758
rfemur -31.5361 -1.75579 18.3015
rtibia 29.7588
rfoot -8.73552 -2.2198
rtoes -0.216493
lfemur -29.5288 6.04186 -9.9187
ltibia 30.4564
lfoot -11.5842 -0.412035
ltoes -16.5307
52
root -10.3225 17.9104 5.65372 -42.6529 84.6465 -57.8304
lowerback 4.15116 1.47561 -1.29055
upperback 5.66585 2.04223 4.16666
thorax 3.33397 0.964614 5.02555
lowerneck -13.2975 -1.61534 1.83141
upperneck 42.9241 1.124 -3.79769
head 18.4047 0.916982 -1.7021
rclavicle 1.31198e-014 3.18055e-015
rhumerus -11.1038 26.9341 -101.151
rradius 35.9304
rwrist -41.9959
rhand -28.7051 -9.77931
rfingers 7.12502
rthumb -2.06693 -39.749
lclavicle 1.31198e-014 3.18055e-015
lhumerus -10.0464 -36.8162 106.46
lradius 35.9292
lwrist 49.6668
lhand -4.47428 55.611
lfingers 7.12502
lthumb 21.2985 84.4607
rfemur -31.4937 -1.70435 18.2543
rtibia 29.704
rfoot -8.7628 -2.26412
rtoes 0.324605
lfemur -29.5312 6.06142 -9.95157
ltibia 30.3816
lfoot -11.4871 -0.503378
ltoes -16.2947
53
root -10.322 17.9138 5.65375 -42.6163 84.6589 -57.7624
lowerback 4.22727 1.47228 -1.30745
upperback 5.63673 2.03805 4.15721
thorax 3.26095 0.963485 5.02176
lowerneck -13.2659 -1.60407 1.83206
upperneck 42.9151 1.1495 -3.8134
head 18.392 0.925708 -1.70437
rclavicle -2.0276e-014 -1.90833e-014
rhumerus -11.2258 27.0238 -101.188
rradius 36.0339
rwrist -42.1061
rhand -28.7138 -9.83111
rfingers 7.12502
rthumb -2.07532 -39.8008
lclavicle -2.0276e-014 -1.90833e-014
lhumerus -10.1035 -36.738 106.489
lradius 35.9155
lwrist 49.6026
lhand -4.43688 55.5456
lfingers 7.12502
lthumb 21.3344 84.3912
rfemur -31.4228 -1.67212 18.224
rtibia 29.6407
rfoot -8.79943 -2.27333
rtoes 1.39488
lfemur -29.4437 5.74142 -9.80149
ltibia 30.3184
lfoot -11.4907 -0.64299
ltoes -14.2019
54
root -10.3218 17.9164 5.65252 -43.0347 84.6509 -58.1375
lowerback 4.28827 1.45389 -1.30582
upperback 5.63072 2.01464 4.19278
thorax 3.22178 0.952422 5.05653
lowerneck -13.2267 -1.58891 1.80268
upperneck 42.8889 1.20818 -3.87311
head 18.3691 0.936477 -1.71554
rclavicle 2.10712e-014 3.18055e-015
rhumerus -11.2946 27.1321 -101.166
rradius 36.1006
rwrist -42.1912
rhand -28.6919 -9.91828
rfingers 7.12502
rthumb -2.05415 -39.8881
lclavicle 2.10712e-014 3.18055e-015
lhumerus -10.1265 -36.6367 106.544
lradius 35.9287
lwrist 49.6278
lhand -4.70204 55.6586
lfingers 7.12502
lthumb 21.0797 84.5328
rfemur -31.3392 -1.67198 18.2435
rtibia 29.5822
rfoot -8.76035 -2.25801
rtoes 2.03995
lfemur -29.3122 5.41939 -9.62364
ltibia 30.2691
lfoot -11.5039 -0.659328
ltoes -12.3384
